# xmcd CD database file
#
# Track frame offsets:
#	150
#	21482
#	40448
#	61780
#
# Disc length: 1073 seconds
#
# Revision: 0
# Processed by: cddbd v1.5.1PL0 Copyright (c) Steve Scherf et al.
# Submitted via: CDex 1.51
#
DISCID=30042f04
DTITLE=栗林みな実 - マブラヴ
DYEAR=2005
DGENRE=Vocal
TTITLE0=マブラヴ
TTITLE1=桜の花が咲くまえに
TTITLE2=マブラヴ offvocal
TTITLE3=桜の花が咲くまえに offvocal
EXTD=YEAR: 2005
EXTT0=
EXTT1=
EXTT2=
EXTT3=
PLAYORDER=
